<?xml version="1.0" standalone="no"?>
<!DOCTYPE svg PUBLIC "-//W3C//DTD SVG 20010904//EN"
 "http://www.w3.org/TR/2001/REC-SVG-20010904/DTD/svg10.dtd">
<svg version="1.0" xmlns="http://www.w3.org/2000/svg"
 width="5899.000000pt" height="1654.000000pt" viewBox="0 0 5899.000000 1654.000000"
 preserveAspectRatio="xMidYMid meet">

<g transform="translate(0.000000,1654.000000) scale(0.100000,-0.100000)"
fill="#000000" stroke="none">
<path d="M6385 11100 c-296 -33 -630 -122 -824 -219 -179 -91 -385 -269 -522
-450 -142 -189 -255 -443 -309 -696 -34 -157 -39 -441 -11 -604 25 -147 86
-337 142 -441 157 -292 427 -517 814 -680 198 -84 657 -222 980 -295 66 -15
192 -51 280 -80 374 -123 611 -282 701 -469 29 -59 34 -81 34 -141 0 -91 -12
-130 -61 -204 -128 -192 -438 -311 -809 -311 -497 1 -1016 204 -1489 584 -52
42 -98 76 -102 76 -5 0 -624 -737 -707 -841 -11 -14 1 -28 89 -100 499 -414
1141 -686 1849 -786 173 -24 628 -24 783 0 411 64 727 190 994 396 240 185
449 454 513 660 40 127 85 313 107 436 24 144 24 459 0 575 -80 375 -283 643
-656 868 -279 168 -565 277 -1416 541 -335 104 -581 191 -643 227 -153 90
-243 274 -215 438 35 208 229 392 464 442 140 30 488 2 706 -56 266 -71 604
-237 944 -463 l26 -18 316 458 316 458 -27 23 c-57 48 -221 161 -317 219 -364
220 -774 365 -1220 433 -157 25 -584 36 -730 20z"/>
<path d="M50261 11099 c-397 -30 -753 -144 -1031 -330 -102 -68 -281 -238
-347 -329 -194 -268 -293 -610 -280 -965 9 -216 47 -376 128 -539 131 -262
379 -473 739 -631 217 -95 452 -168 1110 -345 391 -105 622 -185 830 -287 163
-80 180 -91 250 -162 132 -133 208 -277 237 -448 57 -340 -145 -705 -507 -918
-142 -83 -297 -134 -472 -155 -123 -14 -497 2 -685 29 -507 75 -903 275 -1418
714 l-40 34 -194 -230 -195 -230 50 -44 c368 -327 810 -568 1305 -712 481
-140 984 -168 1411 -80 244 50 528 172 718 306 226 162 453 434 545 657 78
189 110 385 102 621 -6 177 -28 299 -78 442 -72 206 -169 347 -349 510 -275
248 -459 324 -1288 533 -266 66 -550 143 -631 169 -354 116 -588 244 -742 409
-149 157 -183 257 -183 537 1 132 4 174 22 238 64 234 236 422 486 530 202 87
421 122 721 114 217 -6 362 -26 566 -77 338 -86 683 -258 882 -440 58 -53 70
-61 81 -49 31 33 346 459 346 468 0 14 -149 132 -260 206 -487 325 -1201 502
-1829 454z"/>
<path d="M16490 11028 c-89 -204 -2340 -5501 -2340 -5509 0 -5 234 -9 615 -9
l615 0 15 33 c9 17 123 295 254 617 l238 585 1165 3 1165 2 253 -620 253 -620
634 0 c625 0 634 0 628 20 -3 10 -534 1260 -1180 2777 l-1173 2758 -562 3
-561 2 -19 -42z m929 -2315 c198 -485 361 -885 361 -888 0 -3 -326 -5 -725 -5
-486 0 -725 3 -725 10 0 6 158 396 351 868 193 471 355 868 360 881 5 13 11
22 13 20 2 -2 166 -401 365 -886z"/>
<path d="M37245 8373 c-671 -1484 -1237 -2735 -1257 -2780 l-37 -83 322 2 322
3 325 725 326 725 1500 3 1500 2 324 -730 323 -730 334 0 c183 0 333 4 333 9
0 5 -564 1254 -1253 2777 l-1253 2769 -294 2 -295 3 -1220 -2697z m2130 556
c341 -765 622 -1395 623 -1400 2 -5 -508 -9 -1248 -9 -1115 0 -1251 2 -1248
15 5 25 1242 2784 1248 2785 3 0 285 -626 625 -1391z"/>
<path d="M22105 11038 c-143 -5 -486 -10 -762 -11 l-503 -2 0 -2757 0 -2758
610 0 610 0 0 885 0 885 473 0 473 0 593 -885 592 -885 711 0 710 0 -17 28
c-10 15 -310 454 -667 976 -357 521 -650 953 -651 958 -1 6 28 21 64 33 388
133 739 462 920 861 291 642 242 1400 -124 1921 -79 113 -297 328 -403 399
-283 188 -696 295 -1334 344 -191 15 -986 20 -1295 8z m1345 -1122 c162 -25
285 -61 399 -117 185 -91 303 -237 345 -426 21 -95 22 -360 1 -458 -25 -117
-76 -208 -169 -300 -168 -165 -392 -239 -815 -267 -137 -9 -275 -9 -617 1
-242 7 -462 10 -487 6 l-47 -7 0 792 0 793 108 -6 c59 -3 195 -2 302 2 310 14
855 6 980 -13z"/>
<path d="M9510 10470 l0 -560 840 0 840 0 0 -2200 0 -2200 608 2 607 3 3 2198
2 2197 835 0 835 0 0 560 0 560 -2285 0 -2285 0 0 -560z"/>
<path d="M28903 10983 c-13 -76 -7 -822 10 -1373 55 -1697 13 -2537 -148
-2987 -50 -141 -92 -207 -192 -304 -103 -100 -179 -153 -306 -215 -158 -76
-221 -88 -447 -88 -179 0 -203 3 -292 27 -255 68 -470 191 -667 381 -92 89
-202 226 -251 311 -17 30 -36 55 -41 55 -6 0 -108 -84 -227 -187 -119 -103
-219 -188 -221 -189 -5 -4 54 -107 102 -177 352 -524 1066 -849 1752 -797 627
48 1109 356 1350 863 107 227 150 401 180 737 36 408 40 628 35 1795 -2 627
-4 1377 -5 1668 l0 527 -312 0 -312 0 -8 -47z"/>
<path d="M31142 8273 l3 -2758 2015 0 2015 0 3 283 2 282 -1705 0 -1705 0 0
965 0 965 1505 0 1505 0 0 285 0 285 -1505 0 -1505 0 0 940 0 940 1685 0 1685
0 0 285 0 285 -2000 0 -2000 0 2 -2757z"/>
<path d="M42520 8270 l0 -2760 305 0 305 0 2 2256 3 2256 1680 -2133 c924
-1173 1724 -2189 1778 -2256 l97 -123 248 2 247 3 3 2758 2 2757 -305 0 -305
0 -2 -2207 -3 -2207 -1735 2207 -1735 2207 -292 0 -293 0 0 -2760z"/>
<path d="M53785 6890 c-264 -31 -465 -197 -531 -440 -12 -44 -18 -101 -18
-175 0 -74 6 -131 18 -175 52 -193 188 -336 388 -408 66 -24 86 -27 218 -27
132 0 152 2 225 28 201 69 344 224 391 423 33 144 15 321 -48 453 -45 95 -158
206 -258 254 -119 57 -262 82 -385 67z"/>
</g>
</svg>
